# xmcd CD database file
#
# Track frame offsets:
#	150
#	28638
#	57467
#	97749
#	121768
#	147153
#	167522
#	198912
#	222663
#	257320
#	291807
#	308342
#	323146
#	338558
#
# Disc length: 4720 seconds
#
# Revision: 0
# Processed by: cddbd v1.5.2PL0 Copyright (c) Steve Scherf et al.
# Submitted via: CDex 1.78
#
DISCID=ba126e0e
DTITLE=Eric Clapton - Live
DYEAR=2000
DGENRE=Blues
TTITLE0=Eric Clapton - Early In The Morning -
TTITLE1=Eric Clapton - Wonderful Tonight -
TTITLE2=Eric Clapton - Tell The Truth -
TTITLE3=Eric Clapton - Knockin On Heaven's Door -
TTITLE4=Eric Clapton - Layla -
TTITLE5=Eric Clapton - Further On Up The Road -
TTITLE6=Eric Clapton - Driftin' Blues -
TTITLE7=Eric Clapton - Walkin' Down The Road -
TTITLE8=Eric Clapton - Have You Ever Loved A Woman -
TTITLE9=Eric Clapton - The Sky Is Crying - Have You E
TTITLE10=John lennon - Instant Karma! (We All Shine On) (Live)
TTITLE11=John Lennon - Imagine (Live)
TTITLE12=John Lennon - Only You
TTITLE13=John Lennon - Stand By Me (2004 Digital Rema
EXTD=YEAR: 2000
EXTT0=
EXTT1=
EXTT2=
EXTT3=
EXTT4=
EXTT5=
EXTT6=
EXTT7=
EXTT8=
EXTT9=
EXTT10=
EXTT11=
EXTT12=
EXTT13=
PLAYORDER=
